<?xml version="1.0" standalone="no"?>
<!DOCTYPE svg PUBLIC "-//W3C//DTD SVG 20010904//EN"
 "http://www.w3.org/TR/2001/REC-SVG-20010904/DTD/svg10.dtd">
<svg version="1.0" xmlns="http://www.w3.org/2000/svg"
 width="500.000000pt" height="500.000000pt" viewBox="0 0 500.000000 500.000000"
 preserveAspectRatio="xMidYMid meet">
<metadata>
Created by potrace 1.11, written by Peter Selinger 2001-2013
</metadata>
<g transform="translate(0.000000,500.000000) scale(0.100000,-0.100000)"
fill="#000000" stroke="none">
<path d="M1990 4968 c0 -7 7 -49 15 -93 19 -95 21 -292 5 -390 -6 -38 -26
-116 -45 -171 -83 -248 -238 -487 -511 -788 -54 -60 -137 -152 -182 -205 -466
-535 -642 -1026 -581 -1622 58 -578 387 -1114 879 -1434 140 -91 360 -186 550
-237 81 -22 102 -23 425 -23 325 0 344 1 425 23 199 55 404 143 550 237 383
245 673 631 808 1075 64 208 77 310 77 590 0 239 -2 263 -27 385 -45 215 -103
376 -213 596 -325 649 -1025 1349 -1917 1915 -198 125 -258 158 -258 142z
m601 -1738 c25 -19 143 -151 316 -358 106 -125 107 -177 3 -407 -5 -11 -34
-82 -65 -157 -30 -76 -80 -200 -110 -275 -31 -76 -60 -147 -65 -158 -5 -11
-27 -65 -49 -120 -22 -55 -50 -111 -62 -125 l-21 -24 -24 27 c-13 16 -24 35
-24 43 0 8 -4 14 -8 14 -5 0 -15 19 -21 43 -7 23 -22 61 -32 84 -10 23 -19 46
-19 50 0 5 -8 24 -19 43 -10 19 -24 53 -31 75 -7 22 -19 49 -25 60 -7 11 -18
38 -25 60 -7 22 -16 45 -20 50 -4 6 -15 35 -25 65 -10 30 -21 57 -25 60 -4 3
-13 23 -20 45 -7 22 -16 45 -20 50 -4 6 -15 35 -25 65 -10 30 -21 57 -25 60
-4 3 -15 30 -25 60 -10 30 -23 61 -29 69 -6 8 -11 42 -10 77 1 81 2 83 256
376 64 74 127 142 140 151 32 22 75 21 109 -3z m-726 -790 c-3 -5 -17 -10 -31
-10 -13 0 -24 5 -24 10 0 6 14 10 31 10 17 0 28 -4 24 -10z m1405 0 c0 -5 -11
-10 -25 -10 -14 0 -25 5 -25 10 0 6 11 10 25 10 14 0 25 -4 25 -10z m-1495
-10 c4 -6 -5 -10 -20 -10 -15 0 -24 4 -20 10 3 6 12 10 20 10 8 0 17 -4 20
-10z m132 -4 c-4 -9 0 -12 13 -9 28 7 77 -48 168 -192 46 -71 119 -184 162
-250 203 -309 233 -360 225 -385 -9 -29 -44 -34 -116 -16 -35 8 -100 22 -144
30 -161 29 -526 100 -597 115 -26 6 -61 17 -77 26 -30 15 -71 64 -71 84 0 6
-4 11 -9 11 -5 0 -7 10 -3 22 4 15 2 19 -7 14 -9 -6 -11 2 -6 31 5 29 4 35 -5
23 -9 -12 -10 -8 -5 19 6 25 4 32 -5 26 -10 -6 -11 -1 -6 19 5 19 3 26 -9 26
-11 0 -13 7 -8 32 4 22 3 29 -5 24 -8 -5 -10 2 -5 25 5 24 3 30 -7 24 -9 -6
-10 0 -5 25 5 25 4 31 -5 25 -10 -6 -11 -1 -6 19 5 19 3 26 -9 26 -8 0 -15 5
-15 10 0 6 5 10 10 10 6 0 10 11 10 25 0 14 13 39 28 56 25 28 38 33 137 50
61 10 162 25 225 34 63 9 119 20 125 26 14 14 28 11 22 -5z m1277 -7 c-31 -12
-39 -10 -19 5 11 8 24 12 29 8 5 -3 1 -9 -10 -13z m166 11 c0 -5 -9 -10 -21
-10 -11 0 -17 5 -14 10 3 6 13 10 21 10 8 0 14 -4 14 -10z m-1662 -17 c-10 -2
-26 -2 -35 0 -10 3 -2 5 17 5 19 0 27 -2 18 -5z m1692 -8 c108 -17 135 -18
105 -5 -18 8 -17 9 8 9 17 1 26 -3 22 -9 -10 -16 25 -25 46 -12 10 7 23 12 29
12 17 0 11 -18 -7 -24 -10 -3 7 -4 37 -1 38 2 49 1 35 -6 -18 -8 -18 -9 5 -7
71 3 91 -49 62 -167 -87 -355 -95 -377 -147 -423 -28 -24 -60 -42 -83 -46 -20
-4 -66 -13 -102 -21 -76 -17 -196 -40 -330 -66 -115 -21 -289 -55 -350 -68
-64 -14 -80 -13 -80 5 0 20 10 37 165 274 372 567 346 532 412 556 48 17 58
17 173 -1z m53 8 c-7 -2 -21 -2 -30 0 -10 3 -4 5 12 5 17 0 24 -2 18 -5z
m-1828 -13 c-3 -5 -12 -10 -20 -10 -8 0 -17 5 -20 10 -4 6 5 10 20 10 15 0 24
-4 20 -10z m1505 -36 c-18 -21 -48 -62 -67 -91 -18 -29 -36 -53 -39 -53 -4 0
1 11 10 25 9 14 24 37 33 53 21 32 25 37 59 80 15 18 29 31 32 28 2 -3 -10
-22 -28 -42z m-1585 26 c4 -6 -5 -10 -20 -10 -15 0 -24 4 -20 10 3 6 12 10 20
10 8 0 17 -4 20 -10z m-92 -17 c-12 -2 -34 -18 -48 -35 -14 -17 -29 -28 -32
-24 -11 11 56 66 79 65 l23 -2 -22 -4z m1555 -188 c-6 -14 -14 -25 -18 -25 -4
0 -13 -13 -20 -29 -6 -16 -21 -38 -33 -48 l-20 -18 20 30 c11 17 32 49 48 73
31 47 40 54 23 17z m-96 -147 c-7 -7 -12 -8 -12 -2 0 14 12 26 19 19 2 -3 -1
-11 -7 -17z m-12 -22 c0 -2 -7 -9 -15 -16 -13 -11 -14 -10 -9 4 5 14 24 23 24
12z m-37 -51 c-3 -9 -8 -14 -10 -11 -3 3 -2 9 2 15 9 16 15 13 8 -4z m-23 -40
c-7 -9 -15 -13 -17 -11 -7 7 7 26 19 26 6 0 6 -6 -2 -15z m-26 -40 c-4 -8 -11
-15 -16 -15 -6 0 -5 6 2 15 7 8 14 15 16 15 2 0 1 -7 -2 -15z m-44 -64 c-29
-42 -34 -39 -8 4 11 20 23 34 25 31 3 -3 -5 -19 -17 -35z m-49 -74 c-10 -9
-11 -8 -5 6 3 10 9 15 12 12 3 -3 0 -11 -7 -18z m-11 -21 c0 -2 -7 -9 -15 -16
-13 -11 -14 -10 -9 4 5 14 24 23 24 12z m-37 -51 c-3 -9 -8 -14 -10 -11 -3 3
-2 9 2 15 9 16 15 13 8 -4z m-548 -138 c228 -12 315 -22 332 -40 14 -13 15
-21 7 -35 -6 -9 -117 -116 -246 -238 -207 -194 -242 -223 -283 -233 -52 -13
-100 -7 -160 20 -22 9 -74 32 -115 49 -145 61 -154 106 -59 288 72 136 72 136
124 174 l40 29 135 -5 c74 -2 176 -7 225 -9z m1251 -22 c64 -19 78 -35 153
-176 71 -135 77 -172 34 -218 -16 -16 -62 -44 -103 -61 -41 -17 -97 -41 -123
-53 -62 -27 -143 -28 -185 -1 -16 10 -127 109 -246 218 -218 201 -238 226
-202 255 8 7 133 18 312 30 164 10 302 19 305 20 3 0 28 -6 55 -14z"/>
</g>
</svg>
