<?xml version="1.0"?>
<!--Icons from directory ""-->
<svg xmlns="http://www.w3.org/2000/svg" width="8" height="24" viewBox="0 0 8 24"><svg xmlns:sketch="http://www.bohemiancoding.com/sketch/ns" xmlns:xlink="http://www.w3.org/1999/xlink" height="12" width="8" version="1.1" viewBox="0 0 8 12" id="pag_arrow_left" y="0"><title>Shape</title><desc>Created with Sketch.</desc><g id="pag_arrow_left-Page-1" fill-rule="evenodd" sketch:type="MSPage" fill="none"><path id="pag_arrow_left-Shape" sketch:type="MSShapeGroup" fill="#CDCDCD" d="m1.3612 7.4088l4.5988 4.5912 1.41-1.41-4.5938-4.5938 4.5938-4.5862-1.41-1.42-4.595 4.595-0.005-0.005-1.41 1.42 1.41 1.41 0.0012-0.0012zm-0.0012 0.0012l-1.41-1.41 1.41 1.41z" transform="translate(3.66 5.995) scale(1 -1) translate(-3.66 -5.995)"/></g></svg><svg xmlns:sketch="http://www.bohemiancoding.com/sketch/ns" xmlns:xlink="http://www.w3.org/1999/xlink" height="12" width="8" version="1.1" viewBox="0 0 8 12" id="pag_arrow_right" y="12"><title>Shape</title><desc>Created with Sketch.</desc><g id="pag_arrow_right-Page-1" fill-rule="evenodd" sketch:type="MSPage" fill="none"><path id="pag_arrow_right-Shape" sketch:type="MSShapeGroup" fill="#CDCDCD" d="m1.3612 7.4088l4.5988 4.5912 1.41-1.41-4.5938-4.5938 4.5938-4.5862-1.41-1.42-4.595 4.595-0.005-0.005-1.41 1.42 1.41 1.41 0.0012-0.0012zm-0.0012 0.0012l-1.41-1.41 1.41 1.41z" transform="translate(3.66 5.995) scale(-1 1) translate(-3.66 -5.995)"/></g></svg></svg>
